<?xml version="1.0" standalone="no"?>
<!DOCTYPE svg PUBLIC "-//W3C//DTD SVG 20010904//EN"
 "http://www.w3.org/TR/2001/REC-SVG-20010904/DTD/svg10.dtd">
<svg version="1.0" xmlns="http://www.w3.org/2000/svg"
 width="512.000000pt" height="512.000000pt" viewBox="0 0 512.000000 512.000000"
 preserveAspectRatio="xMidYMid meet">

<g transform="translate(0.000000,512.000000) scale(0.100000,-0.100000)"
fill="#000000" stroke="none">
<path d="M2637 4852 c-25 -28 -22 -87 5 -106 51 -36 118 -5 118 54 0 17 -9 39
-20 50 -26 26 -81 26 -103 2z"/>
<path d="M3516 4544 c-45 -44 -19 -116 43 -122 37 -4 66 17 75 54 7 25 -8 63
-28 76 -19 13 -74 8 -90 -8z"/>
<path d="M4223 4474 c233 -308 400 -725 464 -1155 21 -145 24 -531 5 -669 -21
-145 -58 -316 -97 -436 -18 -59 -31 -112 -28 -117 15 -25 21 -86 12 -128 -15
-72 -109 -169 -109 -114 0 30 -52 117 -96 162 -25 24 -71 57 -102 71 -49 23
-70 27 -152 27 -84 0 -101 -3 -150 -28 -76 -39 -143 -108 -177 -181 -24 -52
-28 -74 -28 -146 0 -74 4 -93 31 -150 59 -124 164 -197 299 -209 l74 -6 -45
-55 c-68 -82 -238 -254 -329 -330 -84 -71 -291 -220 -306 -220 -5 0 -9 6 -9
13 0 23 -38 50 -70 50 -16 0 -39 -8 -50 -18 -24 -22 -27 -77 -5 -98 13 -14 10
-18 -31 -41 -77 -43 -291 -136 -313 -136 -4 0 0 24 10 53 52 150 -6 326 -137
412 -189 126 -431 61 -531 -143 -25 -50 -28 -68 -28 -152 0 -81 4 -103 26
-150 33 -71 105 -145 172 -175 28 -14 58 -25 65 -25 39 0 -18 -69 -80 -94 -89
-38 -189 -9 -259 73 l-40 48 -152 6 c-314 13 -587 72 -877 187 -168 66 -399
195 -534 297 -27 21 -47 32 -45 25 9 -25 205 -225 297 -303 446 -373 945 -575
1509 -608 1413 -83 2623 990 2702 2397 38 673 -169 1290 -608 1814 -78 92
-278 288 -303 297 -7 2 4 -18 25 -45z"/>
<path d="M1541 4475 c-69 -22 -147 -81 -190 -146 -122 -183 -52 -434 147 -527
49 -23 70 -27 152 -27 81 0 103 4 150 26 70 33 141 103 177 177 25 50 28 68
28 152 0 83 -3 102 -27 150 -30 61 -83 121 -139 156 -81 51 -207 67 -298 39z"/>
<path d="M3217 4399 c-28 -16 -40 -58 -26 -90 21 -53 104 -55 128 -3 16 37 14
52 -14 79 -25 26 -58 31 -88 14z"/>
<path d="M2360 4253 c-51 -19 -68 -85 -30 -123 44 -44 120 -10 120 54 0 46
-49 84 -90 69z"/>
<path d="M3937 4070 c-103 -26 -198 -104 -245 -200 -24 -48 -27 -67 -27 -150
0 -88 3 -101 33 -162 36 -74 96 -133 170 -170 40 -19 63 -23 147 -23 87 0 107
3 157 27 277 130 274 526 -6 654 -59 27 -170 38 -229 24z"/>
<path d="M2832 3969 c-191 -24 -336 -222 -301 -413 22 -121 100 -225 207 -274
46 -21 72 -26 137 -26 96 0 147 13 212 57 104 72 158 178 156 309 0 63 -6 88
-30 140 -70 147 -218 227 -381 207z"/>
<path d="M798 3934 c-51 -27 -46 -101 7 -126 58 -26 119 33 95 91 -6 16 -23
33 -36 40 -31 14 -33 14 -66 -5z"/>
<path d="M1555 3460 c-42 -46 -10 -120 51 -120 40 0 74 32 74 70 0 59 -86 93
-125 50z"/>
<path d="M375 3305 c-14 -13 -25 -36 -25 -50 0 -28 40 -75 64 -75 78 0 109
107 40 139 -37 16 -52 14 -79 -14z"/>
<path d="M1887 3323 c-9 -2 -24 -18 -33 -35 -30 -59 27 -122 89 -99 51 19 62
77 22 116 -23 24 -40 28 -78 18z"/>
<path d="M3325 3318 c-28 -16 -35 -28 -35 -65 0 -92 130 -93 138 -1 2 29 -2
40 -24 57 -30 23 -50 26 -79 9z"/>
<path d="M1555 3150 c-41 -45 -10 -120 50 -120 38 0 75 35 75 71 0 60 -85 93
-125 49z"/>
<path d="M4495 2995 c-40 -39 -29 -97 22 -116 62 -23 119 42 88 101 -24 47
-72 54 -110 15z"/>
<path d="M3483 2855 c-49 -21 -59 -77 -20 -113 46 -43 120 -15 120 46 0 58
-47 89 -100 67z"/>
<path d="M3770 2840 c-27 -27 -26 -71 3 -98 54 -51 128 -7 117 68 -6 49 -82
68 -120 30z"/>
<path d="M711 2824 c-233 -82 -320 -364 -173 -559 168 -223 523 -176 623 83
33 85 31 199 -5 278 -44 97 -126 168 -231 201 -54 17 -160 15 -214 -3z"/>
<path d="M2365 2827 c-93 -31 -178 -108 -222 -202 -36 -79 -38 -190 -4 -277
105 -270 480 -307 636 -63 118 183 52 421 -143 517 -56 28 -79 33 -147 35 -45
2 -97 -3 -120 -10z"/>
<path d="M1517 2699 c-28 -16 -40 -58 -26 -90 21 -53 104 -55 128 -3 16 37 14
52 -14 79 -25 26 -58 31 -88 14z"/>
<path d="M3000 2690 c-26 -26 -26 -81 0 -105 45 -41 120 -10 120 50 0 63 -77
98 -120 55z"/>
<path d="M3793 2550 c-46 -19 -57 -83 -20 -118 29 -27 71 -28 97 -2 55 55 -4
149 -77 120z"/>
<path d="M1268 2239 c-48 -18 -54 -92 -10 -125 25 -19 56 -17 86 7 64 50 3
146 -76 118z"/>
<path d="M1780 2237 c-52 -26 -49 -104 4 -128 58 -27 116 28 95 89 -5 16 -21
34 -35 41 -31 14 -33 14 -64 -2z"/>
<path d="M3272 1983 c-25 -10 -42 -59 -31 -91 27 -77 139 -54 139 28 0 45 -63
81 -108 63z"/>
<path d="M1417 1786 c-165 -68 -253 -220 -225 -391 19 -120 94 -220 208 -274
47 -22 68 -26 145 -26 78 0 98 4 152 29 180 83 258 294 177 476 -77 172 -285
256 -457 186z"/>
<path d="M577 1762 c-25 -28 -22 -87 5 -106 51 -36 118 -5 118 54 0 17 -9 39
-20 50 -26 26 -81 26 -103 2z"/>
<path d="M3050 1760 c-11 -11 -20 -33 -20 -50 0 -17 9 -39 20 -50 45 -45 120
-11 120 54 0 60 -77 89 -120 46z"/>
<path d="M2436 1659 c-41 -32 -34 -89 15 -114 50 -26 103 9 101 68 -2 60 -65
86 -116 46z"/>
<path d="M3356 1448 c-36 -51 -5 -118 54 -118 17 0 39 9 50 20 45 45 11 120
-54 120 -25 0 -39 -7 -50 -22z"/>
<path d="M1921 1042 c-28 -22 -31 -75 -6 -102 24 -26 79 -26 105 0 62 62 -31
158 -99 102z"/>
<path d="M1610 630 c-26 -26 -26 -81 0 -105 29 -26 79 -24 102 4 56 70 -39
164 -102 101z"/>
</g>
</svg>
