<?xml version="1.0" standalone="no"?>
<!DOCTYPE svg PUBLIC "-//W3C//DTD SVG 20010904//EN"
 "http://www.w3.org/TR/2001/REC-SVG-20010904/DTD/svg10.dtd">
<svg version="1.0" xmlns="http://www.w3.org/2000/svg"
 width="512.000000pt" height="512.000000pt" viewBox="0 0 512.000000 512.000000"
 preserveAspectRatio="xMidYMid meet">

<g transform="translate(0.000000,512.000000) scale(0.100000,-0.100000)"
fill="#000000" stroke="none">
<path d="M640 5110 c-80 -17 -185 -76 -235 -133 -52 -58 -116 -184 -136 -267
-21 -82 -21 -4218 0 -4300 20 -83 84 -209 136 -267 54 -62 158 -117 250 -134
124 -23 309 17 455 98 231 130 3421 1959 3467 1989 78 51 192 167 230 234 84
149 84 311 0 460 -38 67 -152 183 -230 234 -46 30 -3236 1859 -3467 1989 -147
82 -345 123 -470 97z"/>
</g>
</svg>
